<svg xmlns="http://www.w3.org/2000/svg" version="1.1" xmlns:xlink="http://www.w3.org/1999/xlink" width="512" height="512" x="0" y="0" viewBox="0 0 511 511" style="enable-background:new 0 0 512 512" xml:space="preserve" class=""><g><path d="M75.509 426.109C33.358 381.655 7.5 321.597 7.5 255.5c0-136.967 111.033-248 248-248s248 111.033 248 248-111.033 248-248 248c-59.923 0-114.882-21.253-157.751-56.631" style="stroke-width:15;stroke-linecap:round;stroke-linejoin:round;stroke-miterlimit:10;" fill="none" stroke="#000000" stroke-width="15" stroke-linecap="round" stroke-linejoin="round" stroke-miterlimit="10" data-original="#000000" class=""></path><path d="M356.833 441.788c-30.106 16.411-64.631 25.737-101.333 25.737-117.098 0-212.025-94.927-212.025-212.025 0-86.367 51.639-160.672 125.727-193.725M197.457 51.518c18.446-5.239 37.917-8.043 58.043-8.043 117.098 0 212.025 94.927 212.025 212.025 0 69.527-33.465 131.238-85.167 169.903" style="stroke-width:15;stroke-linecap:round;stroke-linejoin:round;stroke-miterlimit:10;" fill="none" stroke="#000000" stroke-width="15" stroke-linecap="round" stroke-linejoin="round" stroke-miterlimit="10" data-original="#000000" class=""></path><path d="m223.619 291.459 27.005-70.905c.552-1.349 2.462-1.351 3.016-.003l26.759 70.908M230.345 273.8h43.391M141.482 226.931s-12.905-10.848-28.123-6.263c-13.973 4.209-15.928 20.321-5.818 26.912 0 0 9.92 4.426 20.922 8.484 26.485 9.769 15.076 35.392-6.245 35.392-10.677 0-19.638-4.676-25.062-10.661M169.204 219.541h39.717M188.982 219.538v71.921M371.482 219.541h39.717M391.26 219.538v71.921M314.933 257.134l30.21 34.325M306.26 219.541v71.918M345.143 238.232c0 10.322-9.051 18.691-19.748 18.691-5.305 0-18.978.082-18.978.082s-.086-13.57-.086-18.773c0-4.273-.048-18.691-.048-18.691h19.111c10.698 0 19.749 8.368 19.749 18.691z" style="stroke-width:15;stroke-linecap:round;stroke-linejoin:round;stroke-miterlimit:10;" fill="none" stroke="#000000" stroke-width="15" stroke-linecap="round" stroke-linejoin="round" stroke-miterlimit="10" data-original="#000000" class=""></path></g></svg>