<svg xmlns="http://www.w3.org/2000/svg" version="1.1" xmlns:xlink="http://www.w3.org/1999/xlink" width="512" height="512" x="0" y="0" viewBox="0 0 511 512" style="enable-background:new 0 0 512 512" xml:space="preserve" class=""><g><path d="M386.586 35.96c-4.961-2.944-11.246.575-11.246 6.345v.539c0 2.633 1.41 5.05 3.676 6.398 69.82 41.574 116.93 117.473 117.886 204.235 1.47 133.398-106.93 243.171-240.336 243.332-132.894.16-241.054-107.98-240.93-240.872.16-173.109 179.122-289.687 337.173-220.19 4.91 2.16 10.421-1.4 10.421-6.767v-.492a7.436 7.436 0 0 0-4.46-6.804C189.715-52.328.5 72.328.5 256.168c0 68.32 26.61 132.555 74.918 180.855 99.945 99.965 261.762 99.973 361.715 0 118.094-118.07 93.176-315.687-50.547-401.062zm0 0" fill="#000000" opacity="1" data-original="#000000" class=""></path><path d="M250.188 470.77c128.367 3.53 231.859-105.774 219.824-234.59-5.012-53.575-29.719-102.961-69.567-139.063C312.652 17.582 176.883 24.067 97.223 112-16.45 237.473 53.734 438.594 219.003 467.625a7.566 7.566 0 0 0 8.763-6.145 7.566 7.566 0 0 0-6.145-8.761c-88.215-15.5-155.66-88.684-164.008-177.977-10.984-117.48 80.29-218.12 198.907-218.12 103.472 0 188.773 77.8 198.421 180.968 11.215 119.976-83.96 221.312-204.34 218.047-4.144-.094-7.656 3.183-7.773 7.36a7.573 7.573 0 0 0 7.36 7.773zm0 0" fill="#000000" opacity="1" data-original="#000000" class=""></path><path d="M180.598 172.922h21.695a7.565 7.565 0 0 0 7.566-7.567 7.565 7.565 0 0 0-7.566-7.566h-21.695c-10.864 0-19.676 8.809-19.676 19.676V334.87c0 10.867 8.812 19.676 19.676 19.676h151.355c10.867 0 19.676-8.809 19.676-19.676V177.465c0-10.867-8.809-19.676-19.676-19.676h-98.379a7.569 7.569 0 0 0-7.57 7.566c0 4.18 3.39 7.567 7.57 7.567h98.38a4.554 4.554 0 0 1 4.538 4.543V334.87a4.553 4.553 0 0 1-4.539 4.54H180.598a4.553 4.553 0 0 1-4.54-4.54V177.465c0-2.5 2.044-4.543 4.54-4.543zm0 0" fill="#000000" opacity="1" data-original="#000000" class=""></path></g></svg>